<?xml version="1.0" encoding="UTF-8" standalone="no"?>
<svg
   xmlns:dc="http://purl.org/dc/elements/1.1/"
   xmlns:cc="http://creativecommons.org/ns#"
   xmlns:rdf="http://www.w3.org/1999/02/22-rdf-syntax-ns#"
   xmlns:svg="http://www.w3.org/2000/svg"
   xmlns="http://www.w3.org/2000/svg"
   width="75.54287mm"
   height="26.458336mm"
   viewBox="0 0 75.542871 26.458336"
   version="1.1"
   id="svg8">
  <defs
     id="defs2" />
  <metadata
     id="metadata5">
    <rdf:RDF>
      <cc:Work
         rdf:about="">
        <dc:format>image/svg+xml</dc:format>
        <dc:type
           rdf:resource="http://purl.org/dc/dcmitype/StillImage" />
        <dc:title></dc:title>
      </cc:Work>
    </rdf:RDF>
  </metadata>
  <g
     id="layer1"
     transform="translate(-138.17048,22.437882)">
    <g
       id="g1087"
       transform="matrix(0.09945419,0,0,0.09931548,89.489153,-45.761677)">
      <g
         id="g1192">
        <path
           style="fill:#000000;stroke-width:1.35913146"
           d="m 635.59102,476.80826 c -2.97647,-5.56159 -9.99095,-27.83669 -11.29993,-63.96537 -2.87698,-79.41142 1.04258,-102.8028 -2.06217,-95.44523 -0.63079,1.49472 -3.6655,26.76736 -7.83228,51.80912 -12.04845,72.41503 -22.59034,99.09539 -26.27858,101.37507 -2.07601,1.28298 -3.82513,-2.3483 -8.80367,-18.27602 -2.68704,-8.5965 -6.34431,-18.02784 -8.12775,-20.95898 -3.88858,-6.39121 -3.57781,-7.04241 -8.24976,17.28097 -3.0298,15.77362 -7.634,28.14247 -10.47571,28.14247 -3.17635,0 -5.94056,-14.95771 -7.2844,-39.41489 -0.43134,-7.8491 -1.11531,-16.38607 -1.52049,-18.97129 l -0.73595,-4.70042 -4.07879,9.25789 c -2.24332,5.09125 -5.58324,16.38073 -7.42225,25.08722 -9.19061,43.51471 -16.97991,30.90086 -20.85777,-33.7786 -1.57126,-26.20757 -3.4246,-41.10837 -6.05643,-48.7013 l -1.72759,-4.98457 1.72759,4.98457 c -0.49249,4.11136 -0.86797,26.83994 -1.97847,49.63938 -2.09716,43.04322 -6.50783,54.35436 -8.35302,55.4949 -5.52692,3.4159 -6.3555,-51.01187 -1.47962,-97.20706 3.29888,-31.25779 5.34432,-44.53043 7.0229,-45.56769 2.03569,-1.25799 6.17984,4.60027 8.42854,11.91389 2.8984,9.42469 9.07881,22.20673 11.58053,52.6816 2.23077,27.1679 5.08546,38.75452 7.59882,46.01419 1.57068,4.53733 -3.6854,7.03714 0.0293,-8.15412 5.46465,-22.3486 15.86739,-42.58536 19.75957,-38.43957 2.37851,2.53428 4.42387,16.68379 5.1888,35.89637 0.47878,12.02542 1.20955,18.63701 1.87839,16.98913 0.6019,-1.48377 3.2839,-9.85518 5.96004,-18.60349 3.57706,-11.69404 5.36028,-15.71571 6.73396,-15.18853 3.03833,1.16556 8.4063,9.91371 13.65988,22.26025 4.49538,10.5637 7.46582,15.76644 7.46582,13.07567 0,-0.58223 2.40806,-11.56099 5.35154,-24.39612 5.83471,-25.44494 9.88264,-46.80988 12.2751,-64.79122 3.29732,-24.78012 9.82143,-61.88397 11.65167,-66.26441 2.25002,-5.3853 3.7137,-4.87624 7.53863,2.6214 5.39467,10.57461 10.28993,23.52525 11.60787,69.12268 1.14619,39.64337 0.27648,76.81768 2.95081,92.48358 l 1.01143,5.92485 2.90137,-4.91764 c 3.2126,-5.44469 10.54211,-25.23238 16.18522,-43.69527 2.70458,-8.85005 4.91338,-13.31218 8.40998,-16.98936 l 4.74128,-4.98696 3.36259,8.83441 c 1.8493,4.85894 5.35193,18.00852 7.78322,29.22153 l 4.42079,20.38688 12.43164,-24.80443 c 6.83725,-13.64196 13.04871,-24.80398 13.80315,-24.80398 3.59349,0 10.52443,17.11889 13.75725,33.97839 1.65099,8.61186 1.72002,8.71435 2.72913,4.07725 0.5691,-2.61632 3.21485,-18.82377 5.87956,-36.01692 2.66435,-17.1931 6.65645,-40.74 8.87115,-52.32656 4.12561,-21.58574 11.45857,-47.56972 13.42441,-47.56972 2.17616,0 5.7952,5.26403 8.48428,12.3412 3.88375,10.22208 8.68566,33.24214 7.34495,72.00478 -0.61472,17.7808 0.11046,38.11191 0.52841,44.09204 0.82888,11.9142 -1.72805,21.06637 -0.0942,21.06637 0.5761,0 3.93478,-4.8541 7.46391,-10.78673 5.75895,-9.6815 12.91701,-17.75488 15.74165,-17.75488 2.95375,0 9.08833,4.68673 14.54227,19.33427 2.12231,5.69975 5.4884,9.51367 5.4884,9.51367 0.53516,-0.92671 3.31357,-5.10805 4.98495,-8.08782 6.34114,-11.30476 10.59916,-31.10075 12.50056,-62.89313 0.97225,-16.25699 2.50709,-20.38715 7.57517,-20.38715 5.36814,0 9.77683,11.69555 15.46412,41.02355 1.9303,9.95422 4.00127,19.93367 4.60226,22.17606 1.02948,3.84208 1.19325,3.60717 2.83677,-4.07724 2.75763,-12.89453 9.36584,-29.83465 14.96714,-38.3685 6.48446,-9.87993 16.86244,-20.01503 19.46999,-19.01434 3.30287,1.26763 3.6365,6.11327 0.68,9.87166 -2.6467,3.36485 -2.6559,3.5536 -0.25735,5.30713 2.3721,1.73502 0.85701,2.41231 -6.56704,29.74091 -3.1397,11.45827 -9.89294,36.30278 1.89558,44.06224 0,0 3.96947,4.51673 15.78943,-17.35369 6.84123,-12.65831 11.44326,-24.90276 13.16917,-40.53739 2.91429,-26.39988 9.15575,-40.98505 15.72471,-40.98505 4.02729,0 5.79689,4.95224 5.0581,14.15555 l -0.66387,8.26996 h 3.8732 c 2.96216,0 5.30785,-1.64001 9.97313,-6.97326 11.27637,-12.89027 24.10389,-14.22952 33.52491,-3.49962 3.80089,4.32924 4.15171,5.48012 3.6208,11.88182 -0.32342,3.89844 -2.21325,10.41052 -4.19955,14.4708 -3.66786,7.49668 -16.0295,20.8964 -23.83967,25.84111 -2.36095,1.49517 -4.29254,3.20718 -4.29254,3.80549 0,2.55284 27.77879,27.24159 34.32978,30.51088 l 7.12356,3.55562 0.9714,-9.43993 c 0.5347,-5.19221 4.3614,-21.87698 8.5042,-37.07814 7.8055,-28.63764 9.9433,-32.92739 15.6644,-31.43107 4.1027,1.07293 3.5503,5.2369 -4.7528,35.85495 -7.8873,29.08441 -9.3919,41.44644 -5.4427,44.72349 4.8542,4.02888 14.1854,-7.28272 26.3394,-31.93427 7.4995,-15.20975 8.1555,-17.3178 9.7309,-31.26009 2.9104,-25.75981 9.9226,-42.60305 17.1609,-41.22261 1.3756,0.26189 7.3877,4.48478 7.6169,6.07761 0.3303,2.30713 -3.4141,0.15322 0,0 6.1626,-0.27631 7.8258,4.19178 9.1987,24.71979 0.634,9.47163 1.5818,19.87746 2.1063,23.12434 l 0.9556,5.90346 4.1192,-6.58314 c 7.0658,-11.28933 18.1811,-35.9961 21.3072,-47.35677 6.3074,-22.92833 14.3868,-34.47039 20.1063,-28.72268 2.1993,2.21024 1.9722,3.37456 -4.0693,20.96825 -7.4619,21.71881 -8.9058,31.38362 -10.1354,67.7926 -0.626,18.5302 -0.3641,29.65071 0.9018,38.48746 1.7373,12.12209 1.7084,12.4998 -1.1656,15.37459 -2.3271,2.32639 -3.4454,2.63703 -5.3073,1.47486 -5.3289,-3.32598 -6.4378,-10.58178 -6.4378,-42.11672 v -30.03556 l -7.0082,11.69101 c -13.2343,22.08086 -17.8447,24.18348 -22.6424,10.32883 l -1.7806,-5.1467 -2.4743,9.36686 c -4.2162,15.97047 -10.0415,29.65662 -14.8601,34.91791 -5.3167,5.804 -6.3083,6.03456 -9.7228,2.26098 -1.7255,-1.90606 -2.7435,-5.76819 -3.2687,-12.39504 l -0.7631,-9.6258 -6.4913,9.51551 c -10.1427,14.87075 -20.5787,20.58005 -29.3377,16.05052 -2.3467,-1.21293 -4.2662,-2.82298 -4.2662,-3.57763 0,-0.87299 -1.041,-0.81489 -2.8613,0.15927 -7.2793,3.89591 -19.66743,-3.46674 -41.565,-24.70382 -7.61537,-7.3857 -14.40376,-13.42849 -15.08553,-13.42849 -0.68174,0 -1.60636,6.48206 -2.05497,14.40484 -0.86646,15.29813 -2.58022,19.9718 -7.94877,21.67549 -5.7972,1.83995 -7.67311,-2.29897 -5.90468,-20.45035 2.7484,-28.20989 10.54973,-67.95665 5.13845,-56.45906 -4.79052,13.49989 -9.05719,58.09506 -7.66994,67.37829 1.23489,8.26139 1.11679,9.51179 -1.10701,11.73603 -5.74085,5.74069 -10.27884,0.69524 -11.54208,-12.83184 l -0.83112,-8.89927 -5.32387,7.97282 c -14.9068,22.32293 -32.33519,24.78962 -37.97127,5.37375 l -1.77553,-6.11565 -0.47284,4.44351 c -0.30672,2.88077 -1.64919,5.21416 -3.81748,6.63478 -3.09351,2.02695 -3.53817,2.01633 -5.92548,-0.144 -4.14379,-3.74998 -14.35065,-38.25271 -16.70443,-56.46553 -0.24155,-1.86849 -1.2659,1.80086 -2.27649,8.15516 -5.31096,33.39163 -17.88186,58.44226 -29.32763,58.44226 -2.43792,0 -5.08703,-0.78834 -5.88696,-1.75208 -1.46826,-1.76932 -1.82099,-2.93855 -7.36307,-24.39657 -1.68743,-6.53285 -3.98093,-8.0028 -4.4505,-8.01109 -0.88031,-0.0138 -6.45338,4.96676 -14.23822,17.56803 -2.444,3.95611 -6.21852,8.11047 -8.38773,9.23216 -3.88595,2.00953 -3.97128,1.9739 -5.82003,-2.45092 -3.49911,-8.3744 -4.82932,-25.62251 -4.83257,-62.66134 -0.002,-38.02396 -1.86543,-72.64928 -4.02261,-74.8065 -1.51554,-1.51525 -3.34079,19.49555 -6.16093,35.26482 -1.13632,6.35363 -3.33093,24.19988 -5.96499,44.00903 -2.6339,19.80951 -4.80788,38.58897 -5.91887,44.99588 -2.39429,13.8095 -10.4417,25.0332 -11.96728,23.45622 -0.59941,-0.61977 -4.25917,-13.6651 -8.13281,-28.98922 -3.87333,-15.32411 -7.25303,-28.08586 -7.51046,-28.35915 -1.33676,-1.41998 -2.96894,16.73496 -6.71241,28.15955 -5.25404,16.03485 -16.95032,26.02307 -18.61944,26.02307 -2.68968,0 -8.30259,-15.92344 -12.81122,-36.34512 -2.60074,-11.7799 -4.90826,-22.02948 -5.12781,-22.77736 -0.81439,-2.77397 0.0809,11.00343 -6.15023,30.79117 -7.57841,24.0689 -18.03493,32.69944 -22.80643,36.45256 -4.35668,3.42707 -5.38716,3.43733 -7.18853,0.0716 z m 254.2648,-79.47351 c 2.90784,-10.4903 -0.67575,-7.54908 -0.99787,-7.54908 -1.52332,0 -10.09883,17.88333 -13.03491,30.73108 -4.517,19.7638 -2.48752,24.98411 2.29713,6.84509 2.16913,-8.22284 10.18988,-25.62787 11.73565,-30.02709 z m 182.86538,11.55255 c 1.0518,-7.44491 3.2673,-40.98012 3.0391,-41.20953 -1.6487,-1.64691 -13.2418,42.48135 -11.8996,66.28001 0.2184,5.45383 6.9965,-11.90248 8.8605,-25.07048 z m -110.23726,-1.10302 c 5.13171,-2.8719 15.74296,-14.72005 18.95378,-21.16291 5.68619,-11.41055 4.13632,-17.26856 -4.63447,-17.51798 -4.88562,-0.13883 -8.64838,2.8945 -13.00987,10.48738 -3.03525,5.28283 -8.90226,20.73372 -10.67401,28.10938 -0.83774,3.48658 -0.70459,3.59417 3.10427,2.50204 2.18856,-0.62786 5.00576,-1.71591 6.2603,-2.41791 z"
           id="path1982" />
        <path
           d="m 1171.5818,245.14962 c -6.9838,5.16688 -11.6584,13.37241 -12.1916,21.38555 l -0.2673,3.99581 -4.3938,-4.69591 c -7.9689,-8.52525 -18.192,-15.49698 -27.0321,-18.43646 -12.4815,-4.1516 -24.5442,-1.26906 -29.4071,7.02249 -5.202,8.87198 4.0171,23.2168 19.6126,30.51512 l 5.0494,2.36218 -5.7755,1.874 c -8.1691,2.64406 -14.2849,6.41193 -17.5581,10.81295 -6.9985,9.40632 -3.3578,19.59526 8.5185,23.84661 12.0795,4.32431 31.2788,0.48906 44.4678,-8.88242 4.282,-3.04253 4.332,-3.02822 2.558,0.69295 -3.5794,7.5141 -11.3636,41.67552 -14.7545,64.75777 -3.1808,21.65171 -3.8254,77.13043 -1.1507,98.66755 1.1589,9.32449 3.6591,18.5488 5.4881,20.2253 l 1.5595,1.43584 -0.3231,-0.0205 c 0.1754,0.0899 0.3242,0.20789 0.4665,0.33943 1.3188,0.0847 1.8873,0.11486 3.2682,0.2046 0.2364,-0.23773 0.5082,-0.45083 0.7697,-0.65046 0.369,-0.1225 0.6935,-0.22218 1.0438,-0.33947 l 1.2234,-1.20212 c 3.3157,-3.25834 3.6435,-6.84076 1.6519,-17.90643 -1.5639,-8.69797 -3.5513,-33.47419 -4.908,-61.27101 -1.1751,-24.10105 5.5393,-81.6438 11.6178,-99.61481 0.5423,-1.60514 1.8461,-4.42934 3.311,-7.34781 2.3259,-4.62515 5.0613,-9.48423 5.8561,-10.08466 0.3078,-0.23491 0.368,0.9606 0.1165,2.65903 -2.7713,19.50227 -1.9677,29.6291 3.0218,38.22391 2.5323,4.35752 5.432,7.04841 10.0237,9.29249 7.5967,3.71197 16.649,3.6643 22.494,-0.11078 4.6271,-2.99378 5.4259,-4.50609 5.7985,-11.00415 0.2835,-5.02176 0.021,-6.67789 -1.7817,-11.43514 -1.1645,-3.06048 -3.2231,-7.49778 -4.5823,-9.85826 -1.3624,-2.36053 -2.4698,-4.43606 -2.4594,-4.61082 0.011,-0.17513 1.6691,0.43511 3.6775,1.35769 17.1382,7.85958 34.2142,6.93315 40.7219,-2.20643 3.5074,-4.92821 1.6713,-12.38926 -4.9575,-20.10552 -4.2596,-4.95639 -10.4305,-8.76685 -17.7889,-10.98971 -5.9741,-1.80376 -17.5827,-2.68376 -24.5622,-1.85992 -2.5877,0.30524 -5.0837,0.54104 -5.5423,0.52331 -0.4637,-0.0164 2.5171,-2.28031 6.6173,-5.0281 6.0464,-4.05358 8.1581,-5.93504 11.1778,-9.97137 3.3543,-4.47999 3.7501,-5.39428 3.9839,-9.16542 -2.6515,-10.02792 -8.3784,-15.65021 -13.52,-17.63196 -11.7049,-4.81517 -19.4663,-4.23688 -31.1391,4.23506 z m -18.8284,253.91039 1.3339,0.15549 c 0.011,-0.0166 0.027,-0.0243 0.038,-0.0408 -0.4634,-0.0347 -0.9176,-0.0832 -1.3834,-0.11132 z m 39.4079,-244.4836 1.3963,1.48546 c 3.4951,3.68842 -1.7093,16.28401 -10.0913,24.41189 l -2.514,2.43274 -3.5539,-1.62628 c -1.9537,-0.89652 -4.7153,-1.70637 -6.1347,-1.79649 -1.4196,-0.0927 -2.5706,-0.39711 -2.5494,-0.68571 0.063,-1.30887 4.0525,-8.66856 6.1842,-11.47109 3.3996,-4.46522 10.9078,-10.64031 14.3231,-11.77447 z m -68.4467,3.0267 c 2.6999,0.17166 12.3301,3.49548 16.9223,5.84148 5.5269,2.82575 14.2417,8.8959 17.568,12.24146 l 2.6721,2.68726 -2.7919,1.73973 c -1.5798,0.9836 -2.8249,2.313 -2.8737,3.06233 -0.061,1.24237 -0.3466,1.29089 -4.2242,0.79907 -2.5964,-0.32908 -6.3177,-1.46866 -10.0111,-3.06915 -4.3599,-1.88823 -7.4227,-3.83176 -11.8011,-7.48933 -6.2971,-5.257 -8.5572,-8.4899 -8.3629,-11.97284 0.1671,-2.99857 0.904,-3.96681 2.9025,-3.84001 z m 62.3132,30.31023 6.8174,0.79927 c 8.6825,1.02249 16.259,3.30083 19.7096,5.92641 2.8214,2.1448 5.5571,5.50185 6.3402,7.77221 0.4112,1.18771 0.1939,1.33794 -1.719,1.21643 -1.205,-0.0769 -5.1934,-0.96844 -8.8646,-1.98068 -3.6708,-1.0117 -10.255,-3.4813 -14.6265,-5.48755 l -7.9434,-3.64908 0.1462,-2.29828 z m -48.8456,2.41889 c 0.9284,0.002 2.0246,0.0603 3.4608,0.1413 3.2474,0.18752 7.6676,0.23224 9.815,0.0994 2.5545,-0.15821 3.9988,-0.0243 4.166,0.38184 0.1418,0.34384 1.3691,1.69324 2.7333,2.99156 l 2.4813,2.35523 -3.5748,3.23879 c -7.6076,6.89498 -22.4359,13.05143 -34.2854,14.23559 -6.5207,0.65189 -8.0555,0.55762 -9.1327,-0.55884 -0.5907,-0.61243 -0.707,-2.31249 -0.3465,-4.92175 0.4573,-3.29236 1.0441,-4.50583 3.3895,-7.0085 4.0991,-4.3704 6.322,-5.85668 12.9472,-8.65575 4.2927,-1.8151 5.5588,-2.30671 8.3463,-2.29851 z m 43.6294,6.53426 c 0.478,0.0589 0.7655,0.38265 1.2916,1.03263 0.5914,0.72937 2.6763,2.97612 4.624,4.99287 6.1228,6.32698 10.3591,18.24397 10.3262,29.00171 -0.016,6.97813 -1.2663,10.65312 -3.4542,10.20506 -0.6977,-0.14353 -2.2931,-2.04916 -3.5441,-4.23629 -1.2523,-2.187 -3.4691,-7.50208 -4.9306,-11.81008 -1.4591,-4.30796 -4.3015,-12.27671 -6.3119,-17.70809 -2.0126,-5.43149 -3.5444,-9.90533 -3.4115,-9.94281 0.1369,-0.0366 1.4518,-0.46473 2.9286,-0.94815 1.3213,-0.43064 1.9989,-0.64375 2.4819,-0.58685 z m -92.4282,65.78313 c -0.1685,-0.008 -0.5036,1.0313 -0.748,2.31257 -0.2466,1.28116 -0.1763,2.34075 0.1536,2.36188 0.3311,0.0218 0.6671,-1.01361 0.7503,-2.30523 0.072,-1.29206 0.01,-2.35846 -0.1559,-2.36922 z"
           style="fill:#000000;stroke-width:0.67591709"
           id="path2625" />
        <path
           style="fill:#000000;stroke-width:1.35913146"
           d="m 1200.9662,450.41927 c -10.0448,-26.20758 -16.9054,-64.55541 -25.3145,-66.49141 -4.8081,-1.12177 -15.1903,56.93334 2.2749,32.69471 8.4841,-6.81542 11.9123,3.14573 8.5644,7.96941 -6.5641,9.45742 -19.3295,16.0789 -13.0746,29.7224 5.1222,11.1727 -4.7582,14.73926 -4.7582,14.73926 -12.7735,-1.72268 -12.5181,-32.7554 -7.6422,-78.95059 3.2989,-31.25779 9.9663,-41.44483 11.6449,-42.48209 2.0357,-1.25799 5.3962,2.29016 7.6581,9.59969 3.1552,10.19609 16.0118,42.7774 19.2839,49.85314 16.5206,46.4833 25.7715,47.47295 18.8647,57.852 0,0 -11.0104,7.48776 -17.5014,-14.50652 z"
           id="path1982-7" />
      </g>
    </g>
  </g>
</svg>
